<?xml version="1.0" standalone="no"?>
<!DOCTYPE svg PUBLIC "-//W3C//DTD SVG 20010904//EN"
 "http://www.w3.org/TR/2001/REC-SVG-20010904/DTD/svg10.dtd">
<svg version="1.0" xmlns="http://www.w3.org/2000/svg"
 width="300.000000pt" height="300.000000pt" viewBox="0 0 300.000000 300.000000"
 preserveAspectRatio="xMidYMid meet">
<metadata>
Created by potrace 1.11, written by Peter Selinger 2001-2013
</metadata>
<g transform="translate(0.000000,300.000000) scale(0.100000,-0.100000)"
fill="#000000" stroke="none">
<path d="M2196 2952 c-33 -65 -46 -144 -39 -237 6 -75 5 -77 -14 -67 -11 6
-26 18 -33 27 -7 9 -32 30 -54 47 -46 35 -40 29 56 -62 50 -47 71 -60 80 -52
22 17 116 41 191 48 127 11 245 -32 332 -122 96 -98 191 -349 246 -649 16 -84
18 -90 13 -35 -7 88 -49 273 -89 396 -68 207 -150 325 -268 384 -33 16 -66 30
-74 30 -18 0 -17 6 8 39 25 34 49 151 49 238 l0 62 -190 0 -190 1 -24 -48z"/>
<path d="M1530 2950 c14 -4 34 -8 45 -8 16 0 15 2 -5 8 -14 4 -34 8 -45 8 -16
0 -15 -2 5 -8z"/>
<path d="M1850 2846 c0 -2 7 -7 16 -10 8 -3 12 -2 9 4 -6 10 -25 14 -25 6z"/>
<path d="M1910 2816 c0 -3 9 -10 20 -16 11 -6 20 -8 20 -6 0 3 -9 10 -20 16
-11 6 -20 8 -20 6z"/>
<path d="M1960 2787 c0 -3 12 -12 26 -22 15 -9 23 -12 20 -6 -7 11 -46 35 -46
28z"/>
<path d="M2210 2566 c0 -2 8 -10 18 -17 15 -13 16 -12 3 4 -13 16 -21 21 -21
13z"/>
<path d="M643 1965 c0 -22 2 -30 4 -17 2 12 2 30 0 40 -3 9 -5 -1 -4 -23z"/>
<path d="M780 1956 c0 -31 6 -34 13 -6 3 11 1 23 -4 26 -5 3 -9 -6 -9 -20z"/>
<path d="M572 1873 c-34 -153 -50 -277 -58 -449 -7 -174 3 -204 16 -47 5 54
12 107 15 118 6 16 5 17 -4 5 -9 -13 -11 -12 -11 5 0 41 21 194 46 324 14 73
23 135 21 137 -2 2 -13 -40 -25 -93z"/>
<path d="M1697 1874 c-4 -54 -9 -117 -12 -139 -2 -22 1 -15 6 15 6 30 17 74
24 97 11 34 11 50 1 84 l-13 42 -6 -99z"/>
<path d="M622 1778 c-11 -29 -27 -78 -37 -108 -10 -30 -20 -59 -23 -65 -3 -5
-7 -25 -8 -45 l-3 -35 15 41 c11 30 24 46 45 54 16 7 32 17 35 22 4 5 -8 2
-26 -7 -17 -9 -34 -15 -36 -12 -6 6 43 144 60 169 18 25 20 38 7 38 -5 0 -18
-24 -29 -52z"/>
<path d="M962 1770 c0 -19 2 -27 5 -17 2 9 2 25 0 35 -3 9 -5 1 -5 -18z"/>
<path d="M712 1760 c0 -14 2 -19 5 -12 2 6 2 18 0 25 -3 6 -5 1 -5 -13z"/>
<path d="M1612 1745 c0 -16 2 -22 5 -12 2 9 2 23 0 30 -3 6 -5 -1 -5 -18z"/>
<path d="M2982 1745 c0 -16 2 -22 5 -12 2 9 2 23 0 30 -3 6 -5 -1 -5 -18z"/>
<path d="M761 1744 c0 -11 3 -14 6 -6 3 7 2 16 -1 19 -3 4 -6 -2 -5 -13z"/>
<path d="M865 1730 c10 -37 61 -126 113 -197 45 -61 75 -86 50 -40 -6 12 -22
58 -34 102 -13 44 -23 73 -23 65 0 -8 6 -40 14 -70 8 -30 13 -56 11 -58 -8 -7
-55 65 -96 143 -23 44 -38 69 -35 55z"/>
<path d="M1762 1730 c0 -14 2 -19 5 -12 2 6 2 18 0 25 -3 6 -5 1 -5 -13z"/>
<path d="M962 1710 c0 -14 2 -19 5 -12 2 6 2 18 0 25 -3 6 -5 1 -5 -13z"/>
<path d="M766 1705 c-3 -8 -1 -15 4 -15 6 0 10 7 10 15 0 8 -2 15 -4 15 -2 0
-6 -7 -10 -15z"/>
<path d="M720 1681 c0 -6 5 -13 10 -16 6 -3 10 1 10 9 0 9 -4 16 -10 16 -5 0
-10 -4 -10 -9z"/>
<path d="M1773 1655 c0 -22 2 -30 4 -17 2 12 2 30 0 40 -3 9 -5 -1 -4 -23z"/>
<path d="M2212 1600 c11 -28 23 -49 25 -47 4 5 -34 97 -41 97 -3 0 5 -23 16
-50z"/>
<path d="M767 1603 c-3 -5 3 -27 13 -48 l19 -40 -6 40 c-6 42 -17 63 -26 48z"/>
<path d="M1782 1585 c0 -16 2 -22 5 -12 2 9 2 23 0 30 -3 6 -5 -1 -5 -18z"/>
<path d="M1370 1536 c0 -3 9 -10 20 -16 11 -6 20 -8 20 -6 0 3 -9 10 -20 16
-11 6 -20 8 -20 6z"/>
<path d="M2170 1375 c0 -5 5 -17 10 -25 5 -8 10 -10 10 -5 0 6 -5 17 -10 25
-5 8 -10 11 -10 5z"/>
<path d="M2190 1324 c0 -6 9 -28 20 -50 12 -23 18 -29 14 -14 -8 31 -33 79
-34 64z"/>
<path d="M1725 1289 c-39 -9 -135 -67 -135 -81 0 -10 -3 -11 60 14 45 17 76
21 165 21 95 0 120 -4 185 -27 123 -45 117 -44 91 -8 -30 42 -66 60 -158 78
-83 16 -148 17 -208 3z"/>
<path d="M2156 1228 c-4 -13 -13 -98 -21 -190 -9 -114 -19 -177 -31 -200 -55
-108 -198 -239 -359 -330 -49 -28 -110 -63 -135 -79 -25 -15 -71 -35 -103 -44
-54 -15 -64 -15 -138 0 -44 9 -144 36 -222 60 -78 24 -143 42 -146 39 -2 -2 1
-4 8 -4 11 0 19 -16 35 -67 6 -19 4 -23 -14 -23 -20 0 -120 -46 -120 -55 0 -2
5 -14 10 -27 17 -38 48 -199 42 -220 -4 -16 -12 -7 -37 39 -57 105 -70 123
-87 123 -21 0 -28 -20 -16 -44 8 -15 38 -172 38 -198 0 -5 36 -8 80 -8 l79 0
70 69 c39 38 79 72 90 76 40 12 101 -36 139 -110 12 -22 21 -33 21 -25 1 8
-12 38 -29 67 -22 39 -44 60 -92 89 -94 56 -138 93 -138 116 0 11 3 18 8 16
98 -51 162 -73 257 -90 133 -24 190 -16 261 38 29 22 46 30 48 22 2 -7 11 -44
20 -83 9 -38 25 -79 36 -90 10 -11 26 -37 35 -58 24 -57 65 -47 65 16 0 11 12
69 26 129 22 93 28 107 41 97 29 -24 33 -46 18 -90 -8 -24 -18 -77 -23 -117
l-8 -72 73 0 c40 0 73 4 73 8 0 5 -14 28 -31 51 -26 37 -34 42 -56 36 -25 -6
-25 -6 -19 42 4 26 12 60 17 75 9 23 7 32 -16 62 -29 38 -102 94 -148 114 -15
7 -44 12 -63 12 l-35 0 16 30 c8 16 30 37 48 46 56 29 212 141 260 187 72 71
134 161 145 214 6 26 14 100 17 163 4 63 11 135 16 159 10 46 6 68 -5 29z"/>
<path d="M828 1191 c-66 -21 -151 -73 -173 -104 -31 -44 -13 -45 58 -3 104 61
127 68 272 75 l130 6 -30 20 c-42 29 -179 32 -257 6z"/>
<path d="M2372 1105 c0 -16 2 -22 5 -12 2 9 2 23 0 30 -3 6 -5 -1 -5 -18z"/>
<path d="M2272 1100 c0 -14 2 -19 5 -12 2 6 2 18 0 25 -3 6 -5 1 -5 -13z"/>
<path d="M2352 1000 c0 -14 2 -19 5 -12 2 6 2 18 0 25 -3 6 -5 1 -5 -13z"/>
<path d="M1445 889 c4 -5 22 -9 42 -9 45 0 40 5 -10 13 -22 3 -35 2 -32 -4z"/>
<path d="M1398 883 c6 -2 18 -2 25 0 6 3 1 5 -13 5 -14 0 -19 -2 -12 -5z"/>
<path d="M2336 874 c-13 -35 -6 -460 9 -579 9 -66 19 -122 22 -125 3 -3 3 13
0 35 -21 137 -29 288 -26 473 2 117 3 212 3 212 -1 0 -5 -7 -8 -16z"/>
<path d="M1548 873 c7 -3 16 -2 19 1 4 3 -2 6 -13 5 -11 0 -14 -3 -6 -6z"/>
<path d="M1590 860 c8 -5 20 -10 25 -10 6 0 3 5 -5 10 -8 5 -19 10 -25 10 -5
0 -3 -5 5 -10z"/>
<path d="M1194 794 c-13 -32 -13 -40 0 -77 l15 -42 -5 50 c-3 28 -1 62 5 78
16 40 2 33 -15 -9z"/>
<path d="M1640 825 c0 -5 5 -17 10 -25 5 -8 10 -10 10 -5 0 6 -5 17 -10 25 -5
8 -10 11 -10 5z"/>
<path d="M1662 748 c-1 -26 1 -30 9 -15 6 10 6 23 1 33 -7 12 -9 8 -10 -18z"/>
<path d="M2192 750 c0 -14 2 -19 5 -12 2 6 2 18 0 25 -3 6 -5 1 -5 -13z"/>
<path d="M1631 667 c-13 -21 -12 -21 5 -5 10 10 16 20 13 22 -3 3 -11 -5 -18
-17z"/>
<path d="M2182 655 c0 -16 2 -22 5 -12 2 9 2 23 0 30 -3 6 -5 -1 -5 -18z"/>
<path d="M2012 530 c0 -14 2 -19 5 -12 2 6 2 18 0 25 -3 6 -5 1 -5 -13z"/>
<path d="M1951 494 c-1 -15 40 -136 45 -131 2 2 -7 35 -20 73 -14 38 -25 64
-25 58z"/>
<path d="M2022 455 c0 -16 2 -22 5 -12 2 9 2 23 0 30 -3 6 -5 -1 -5 -18z"/>
<path d="M2035 365 c3 -27 10 -54 15 -59 14 -14 12 -1 -5 59 l-15 50 5 -50z"/>
<path d="M2050 233 c0 -4 5 -15 10 -23 8 -13 10 -13 10 2 0 9 -4 20 -10 23 -5
3 -10 3 -10 -2z"/>
<path d="M1982 179 c24 -30 59 -81 77 -112 18 -31 37 -60 43 -63 14 -9 38 24
37 50 -1 18 -3 17 -12 -6 -6 -16 -13 -28 -16 -28 -3 0 -26 32 -50 70 -24 37
-62 86 -84 107 l-40 38 45 -56z"/>
<path d="M2371 144 c0 -11 3 -14 6 -6 3 7 2 16 -1 19 -3 4 -6 -2 -5 -13z"/>
<path d="M652 108 c-9 -9 -5 -23 15 -60 24 -44 29 -48 65 -48 21 0 38 3 38 6
0 10 -90 114 -99 114 -4 0 -12 -5 -19 -12z"/>
<path d="M2686 75 c-4 -22 -9 -48 -12 -57 -3 -10 -1 -18 5 -18 11 0 26 81 19
102 -3 7 -8 -5 -12 -27z"/>
<path d="M1220 67 c-45 -40 -65 -67 -49 -67 8 1 31 21 52 45 41 48 39 60 -3
22z"/>
<path d="M576 51 c-10 -11 -16 -26 -14 -34 2 -8 10 0 19 19 19 39 18 41 -5 15z"/>
</g>
</svg>
